<svg width="164" height="52" viewBox="0 0 164 52" fill="none" xmlns="http://www.w3.org/2000/svg">
<path fill-rule="evenodd" clip-rule="evenodd" d="M48.426 9.66894H15.247C12.165 9.67894 9.672 12.1829 9.672 15.2669C9.672 18.3499 12.168 20.8529 15.247 20.8669L36.232 20.8609C44.646 20.9349 51.408 27.7429 51.408 36.1299C51.408 44.5149 44.645 51.3219 36.278 51.3979H2.982C1.335 51.3979 0 50.0629 0 48.4159V44.7099C0 43.0629 1.335 41.7289 2.982 41.7289H36.161C39.242 41.7179 41.736 39.2139 41.736 36.1299C41.736 33.0469 39.24 30.5439 36.161 30.5309L15.176 30.5359C6.762 30.4629 0 23.6539 0 15.2669C0 6.88194 6.762 0.0749426 15.13 -5.72205e-05H48.426C50.073 -5.72205e-05 51.408 1.33394 51.408 2.98094V6.68694C51.408 8.33394 50.073 9.66894 48.426 9.66894ZM65.443 20.8739H98.94C100.587 20.8739 101.921 22.2089 101.921 23.8549V27.5619C101.921 29.2089 100.587 30.5429 98.94 30.5429H65.443V41.7409H104.199C105.846 41.7409 107.181 43.0759 107.181 44.7219V48.4289C107.181 50.0759 105.846 51.4099 104.199 51.4099L58.755 51.4139C57.108 51.4139 55.773 49.7529 55.773 47.7039V3.71594C55.773 1.66694 57.108 0.0059433 58.755 0.0059433H104.199C105.846 0.0059433 107.181 1.34094 107.181 2.98794V6.69394C107.181 8.34094 105.846 9.67594 104.199 9.67594H65.443V20.8739ZM124.226 45.8169C124.226 44.0459 125.048 42.4649 126.331 41.4399L151.494 19.3339C152.566 18.3139 153.235 16.8729 153.235 15.2769C153.235 12.1929 150.742 9.68994 147.66 9.67894H121.169V48.4319C121.169 50.0779 119.834 51.4129 118.188 51.4129H114.481C112.834 51.4129 111.5 50.0779 111.5 48.4319V6.69694V2.99094C111.5 1.34394 112.834 0.00894165 114.481 0.00894165H118.188L147.778 0.0099411C156.145 0.0859413 162.907 6.89194 162.907 15.2769C162.907 20.0149 160.75 24.2479 157.356 27.0489L157.092 27.2619L139.766 42.0779L160.977 41.7419C162.624 41.7419 163.959 43.0769 163.959 44.7239V48.4299C163.959 50.0769 162.624 51.4119 160.977 51.4119L129.822 51.4129C126.732 51.4129 124.226 48.9079 124.226 45.8169Z" fill="#192B77"/>
</svg>
